<svg width="1149" height="757" viewBox="0 0 1149 757" fill="none" xmlns="http://www.w3.org/2000/svg">
<g clip-path="url(#clip0)">
<path d="M1136.68 273.386C1148.91 291.659 1157.78 308.779 1131.27 327.761C1101.56 349.05 1109.19 341.954 1100.23 325.544L1108.21 323.77L1109.1 319.778L1117.44 319.246L1116.55 312.682L1120.89 312.149L1121.34 308.158L1127.1 307.714L1130.65 303.722L1131.89 292.191L1129.94 286.78L1132.33 286.07L1133.66 280.305L1129.58 276.756L1130.91 273.208L1136.68 273.386Z" fill="#F0F1F5" stroke="white" stroke-miterlimit="10" stroke-linejoin="round"/>
<path d="M1133.48 219.365L1137.3 223.889C1129.41 225.042 1128.96 226.905 1125.06 233.114C1116.02 247.75 1111.23 235.864 1132.15 266.733C1133.75 269.039 1135.17 271.168 1136.68 273.386L1131.27 273.297L1127.28 271.612L1123.29 269.749L1122.76 263.628L1107.24 247.662L1102.01 244.557L1098.46 238.791L1106 240.565L1107.77 233.912L1103.69 230.364L1105.02 227.26L1099.26 226.816L1096.16 228.147L1091.81 225.929L1090.04 218.389L1087.38 217.857L1083.48 212.801L1083.83 210.406L1090.92 213.067L1093.58 207.833L1100.15 210.051L1111.67 202.511L1117.44 206.946L1125.42 209.608L1124.09 212.712L1133.48 219.365Z" fill="#F0F1F5" stroke="white" stroke-miterlimit="10" stroke-linejoin="round"/>
<path d="M1130.2 286.869L1126.92 287.933L1121.07 287.046L1118.85 289.352L1119.3 293.255L1113.62 291.481L1111.32 288.022L1113.18 287.933L1114.42 276.845L1107.33 269.305V260.967L1098.55 251.21L1091.9 252.097L1088.8 257.419L1081.26 254.314L1073.28 257.863L1075.05 239.767H1068.4L1067.16 233.912L1064.68 230.719L1071.51 220.163H1071.24L1074.61 217.147V222.026L1080.91 223.357L1079.58 218.922L1077.8 211.825L1083.48 213.599L1083.57 212.89L1087.47 218.034L1090.13 218.478L1091.9 226.018L1096.33 228.235L1099.44 226.816L1105.2 227.26L1103.78 230.364L1107.86 233.912L1106.09 240.565L1098.55 238.791L1102.1 244.557L1107.33 247.662L1122.84 263.628L1123.38 269.749L1127.28 271.612L1131.27 273.297L1129.94 276.845L1133.93 280.393L1132.6 286.159L1130.2 286.869Z" fill="#F0F1F5" stroke="white" stroke-miterlimit="10" stroke-linejoin="round"/>
<path d="M1130.2 286.869L1132.15 292.28L1130.91 303.811L1127.37 307.803L1121.6 308.246L1121.16 312.238L1116.82 312.77L1117.7 319.334L1109.37 319.867L1108.48 323.858L1100.5 325.632C1096.24 317.738 1091.63 311.795 1087.11 307.714L1085.07 299.11L1092.96 288.909L1111.5 288.111L1113.8 291.57L1119.56 293.344L1119.12 289.353L1121.34 287.046L1127.1 287.933L1130.2 286.869Z" fill="#F0F1F5" stroke="white" stroke-miterlimit="10" stroke-linejoin="round"/>
<path d="M1111.32 288.022L1092.79 288.82L1084.9 299.021L1086.94 307.625C1082.15 303.279 1077.54 301.15 1073.81 301.15C1066.72 301.15 1060.96 306.916 1061.31 318.447C1061.84 329.89 1055.55 335.745 1067.07 348.518C1073.19 355.348 1079.58 359.606 1084.54 363.243L1081.17 367.146L1073.64 369.807L1072.75 362.267L1067.43 360.937L1062.64 361.912C1060.25 353.308 1056.43 345.591 1051.91 343.196C1047.92 341.156 1049.52 336.011 1050.32 327.14L1056.35 316.673L1058.12 305.142L1055.46 293.255L1047.57 282.167L1050.23 279.063L1052.53 268.418L1046.77 258.661L1039.68 249.347L1042.78 248.016L1044.55 242.694V236.574L1051.65 232.138L1064.06 231.695L1064.68 230.719L1067.16 233.912L1068.4 239.678H1075.05L1073.28 257.774L1081.26 254.226L1088.8 257.33L1091.9 251.919L1098.55 251.032L1107.33 260.79V269.128L1114.42 276.668L1113.18 287.756L1111.32 288.022Z" fill="#F0F1F5" stroke="white" stroke-miterlimit="10" stroke-linejoin="round"/>
<path d="M1103.07 408.571L1101.21 409.28L1101.3 411.32C1100.77 411.232 1100.15 410.877 1099.44 410.522C1091.01 405.643 1065.3 393.225 1065.3 380.008C1065.3 374.508 1064.33 367.944 1062.73 361.912L1067.61 360.937L1072.93 362.267L1073.81 369.718L1081.26 367.146L1084.63 363.243C1088.97 366.259 1092.25 368.92 1093.67 372.291C1096.78 379.919 1090.57 383.822 1096.78 392.693C1100.59 398.192 1103.96 405.466 1103.96 409.103L1103.07 408.571Z" fill="#F0F1F5" stroke="white" stroke-miterlimit="10" stroke-linejoin="round"/>
<path d="M1071.24 220.163H1071.51L1064.68 230.719L1064.06 231.695L1051.65 232.138L1044.55 236.574V242.694L1042.78 248.016L1039.68 249.347L1046.77 258.661L1052.53 268.418L1050.23 279.063L1047.57 282.167L1055.46 293.255L1058.12 305.142L1056.35 316.673L1050.32 327.14C1051.2 319.246 1051.38 308.335 1046.59 294.054C1036.4 263.983 1043.05 259.104 1034.18 266.644C1025.31 274.184 1010.42 282.167 1014.32 258.661C1016.09 248.016 994.813 233.912 993.483 225.929C993.483 225.929 994.192 223.978 994.37 221.76L996.143 222.381L999.157 213.777L999.246 213.511L1002.26 210.406L1004.48 195.326L1010.68 196.657L1016 185.569L1015.12 180.247L1019.99 172.707V170.046L1029.3 162.949L1035.95 164.28L1036.84 158.514L1039.85 158.071L1040.12 151.684L1042.51 150.974L1049.16 161.087H1051.82L1051.38 178.384L1045.62 180.158L1041.18 191.246L1042.07 194.35L1052.27 195.681L1053.95 202.245L1059.36 209.341L1061.58 216.438L1065.12 219.542L1071.24 220.163Z" fill="#F0F1F5" stroke="white" stroke-miterlimit="10" stroke-linejoin="round"/>
<path d="M962.805 162.506L964.046 165.344L969.277 167.118L985.769 167.562L993.217 166.231L993.483 164.014L993.66 162.24L996.763 154.789L1007.85 147.692L1014.5 143.612H1022.92L1029.48 144.144L1037.02 152.926L1040.39 151.95L1040.12 158.337L1037.02 158.691L1036.13 164.457L1029.48 163.127L1020.17 170.223V172.884L1015.29 180.424L1016.27 185.746L1010.95 196.746L1004.74 195.415L1002.53 210.495L999.512 213.599L999.423 213.865L995.433 208.721L993.66 200.294L990.114 199.85L988.872 203.842L983.996 205.616L983.464 195.947L989.316 193.73L995.433 186.633L972.824 183.085L969.277 174.658L968.48 177.319L961.386 171.11L958.283 173.328L957.219 174.57L955.623 173.328V156.208L960.5 157.361L962.805 162.506Z" fill="#1FC7CC" stroke="white" stroke-miterlimit="10" stroke-linejoin="round"/>
<path d="M999.423 213.865L996.409 222.47L994.636 221.849C995.168 216.881 993.306 210.051 977.346 215.817C973.356 217.325 969.278 219.01 965.199 220.873L964.578 203.398H960.145L961.918 191.423L954.027 190.181L954.914 186.633L964.667 183.529L954.027 178.65L957.397 174.569L958.461 173.328L961.564 171.11L968.657 177.231L969.544 174.569L973.09 182.996L995.7 186.544L989.582 193.641L983.819 195.858L984.35 205.527L989.227 203.753L990.468 199.761L994.015 200.205L995.788 208.632L999.423 213.865Z" fill="#F0F1F5" stroke="white" stroke-miterlimit="10" stroke-linejoin="round"/>
<path d="M993.483 164.014L993.217 166.231L985.769 167.562L969.278 167.118L964.046 165.344L962.805 162.506L971.14 153.458H975.927L978.676 154.788L985.769 154.256L988.872 160.909L993.483 164.014Z" fill="#F0F1F5" stroke="white" stroke-miterlimit="10" stroke-linejoin="round"/>
<path d="M964.49 203.398L965.11 220.873C945.25 230.276 925.3 244.823 913.597 256.887C899.41 271.523 883.539 274.184 883.539 287.401C883.539 300.707 884.869 314.456 882.209 324.124C879.549 333.882 863.147 352.953 858.359 346.744C853.482 340.535 826.085 287.933 822.006 271.079C818.016 254.314 815.445 225.929 815.445 222.026C815.445 217.946 814.115 224.687 808.795 226.461C803.476 228.235 788.225 234.001 773.862 200.294C773.773 200.116 773.684 200.027 773.684 199.85L780.157 197.189L781.841 193.641L796.914 194.528L801.791 191.423L798.244 179.005L794.698 178.561L793.811 171.465L788.935 170.578L788.491 166.586L795.584 157.272L798.244 159.046L807.909 158.159L814.115 146.628L817.13 147.071L821.563 140.507L822.006 135.628L825.11 136.072L826.883 130.306L834.419 125.871L833.178 117.976L843.818 109.993H834.863L833.976 105.203H828.213L825.553 101.123L823.78 96.2438H829.099L824.755 87.4621L830.873 81.6963L822.982 77.3498L814.559 72.9146L815.889 65.02L819.878 63.2459L819.701 61.0283C821.652 60.7622 823.514 60.4961 824.312 60.4961C826.617 60.4961 834.951 59.2542 834.951 59.2542L838.055 55.7061L836.813 59.2542L844.172 63.0685L851.354 71.1405L858.891 76.4628H865.097L872.634 89.3249V97.7518L873.077 113.718L869.974 114.162L878.84 126.137L888.15 131.016L893.913 130.75L889.037 134.564L883.717 140.773L882.83 148.313L906.681 161.175L917.32 163.393L922.197 161.619L928.315 168.271L934.521 167.828L935.851 171.82L955.712 173.594L957.308 174.836L953.939 178.916L964.578 183.795L954.825 186.899L953.939 190.447L961.83 191.689L960.057 203.664H964.49V203.398Z" fill="#1FC7CC" stroke="white" stroke-miterlimit="10" stroke-linejoin="round"/>
<path d="M955.623 156.208V173.328L935.763 171.554L934.433 167.562L928.226 168.005L922.02 161.353L917.143 163.127L906.503 160.909L882.653 148.136L883.539 140.596L888.859 134.387L893.736 130.572L897.282 130.395L904.375 135.185L915.37 144.942L921.133 143.257L924.679 146.716L938.777 152.039L949.949 158.337L955.18 156.03L955.623 156.208Z" fill="#1FC7CC" stroke="white" stroke-miterlimit="10" stroke-linejoin="round"/>
<path d="M901.183 362.799C901.183 372.202 888.77 367.501 884.071 362.267C879.372 356.945 882.918 343.905 884.692 333.971C884.692 333.971 886.465 332.729 889.391 332.196C892.406 331.576 892.938 338.051 895.863 342.22C898.878 346.212 901.183 353.308 901.183 362.799Z" fill="#F0F1F5" stroke="white" stroke-miterlimit="10" stroke-linejoin="round"/>
<path d="M843.729 109.993L833.089 117.976L834.331 125.871L826.794 130.306L825.021 136.072L821.918 135.628L821.474 140.507L817.041 147.071L814.027 146.628L807.82 158.159L798.156 159.046L795.496 157.272L788.403 166.586L788.846 170.578L793.723 171.465L794.609 178.561L798.156 179.005L801.702 191.423L796.826 194.528L781.753 193.641L780.068 197.189L773.596 199.85C763.399 176.521 748.06 183.706 731.746 184.77C727.047 185.125 721.55 185.391 715.787 185.48C716.762 181.488 718.181 176.432 718.979 174.658C720.308 171.554 727.402 172.441 730.062 171.11C732.721 169.779 730.948 164.457 730.948 164.457H726.072V152.482H719.422L709.58 137.935C714.102 139.886 721.816 142.813 727.402 142.813C735.736 142.813 748.681 140.596 748.681 140.596L757.015 134.387L758.345 125.516L762.779 122.855L769.428 122.323L769.872 118.331L776.522 116.114L782.639 117.888L786.629 115.226L787.161 102.808L795.052 99.2598L791.949 90.9216L801.702 93.5827L800.372 86.4864L806.49 78.9466L803.476 69.6326L811.367 62.0928C811.367 62.0928 815.8 61.2945 819.612 60.851L819.79 63.0686L815.8 64.8426L814.47 72.7373L822.893 77.1725L830.784 81.519L824.666 87.2847L829.011 96.0664H823.691L825.464 100.945L828.124 105.026H833.887L834.774 109.816H843.729V109.993Z" fill="#1FC7CC" stroke="white" stroke-miterlimit="10" stroke-linejoin="round"/>
<path d="M761.449 55.3513L772.088 57.835L772.62 58.0124C772.62 58.0124 772.62 60.6735 774.128 60.6735C775.635 60.6735 780.6 56.8593 782.373 56.8593C784.147 56.8593 786.452 57.3915 786.718 55.7061C787.073 53.8433 787.073 53.8433 787.073 53.8433L793.545 52.158V48.255L801.525 43.1989L805.071 45.3277L802.677 50.2952L806.224 50.0291L805.958 61.738L814.913 58.1898L822.893 53.3111L829.986 55.0852L837.877 55.6174L834.774 59.1656C834.774 59.1656 826.44 60.4074 824.134 60.4074C823.336 60.4074 821.474 60.5848 819.524 60.9396C815.8 61.4719 811.278 62.1815 811.278 62.1815L803.387 69.7213L806.401 79.0353L800.284 86.5751L801.613 93.6714L791.86 91.0103L794.964 99.3485L787.073 102.897L786.541 115.315L782.551 117.976L776.433 116.202L769.783 118.42L769.34 122.412L762.69 122.944L758.257 125.605L756.927 134.475L748.592 140.685C748.592 140.685 735.736 142.902 727.313 142.902C721.727 142.902 714.013 139.975 709.491 138.023L709.225 137.58L716.762 128.266L716.319 121.17L708.782 119.928L707.009 95.5342L707.895 84.0914L711.885 77.8821L711.797 74.5114L720.752 77.2612L722.259 79.9223L729.618 78.6805L730.15 72.5599L743.45 66.4393L743.982 57.835H751.696L752.228 53.3998L761.449 55.3513Z" fill="#F0F1F5" stroke="white" stroke-miterlimit="10" stroke-linejoin="round"/>
<path d="M562.752 30.869C566.21 32.1995 570.998 36.1912 575.254 38.1427C575.342 38.2314 575.431 38.2314 575.519 38.3201C576.583 38.7636 577.736 38.8523 578.889 38.4975C584.652 37.3444 591.036 29.4497 593.252 29.4497C595.912 29.4497 594.139 37.3444 594.139 37.3444L597.686 41.4247C597.686 41.4247 599.636 42.4892 602.473 43.4649C602.296 47.634 603.981 50.3838 609.744 54.1094C620.118 60.5848 637.762 65.907 643.348 62.9798C645.742 61.738 647.072 58.8994 647.426 55.6174L652.125 55.0852L659.219 47.9888H666.755L670.302 44.9729L674.735 44.4407L676.508 47.9888L685.818 49.7629L691.581 52.0692L695.571 52.9563L696.458 58.2785H700.004L703.994 63.1572L711.53 64.0443L711.885 74.4226L711.974 77.7934L707.984 84.0027L707.097 95.4455L708.871 119.839L716.407 121.081L716.85 128.177L709.314 137.491L709.58 137.935L719.422 152.482H726.071V164.457H730.948C730.948 164.457 732.721 169.779 730.061 171.11C727.401 172.441 720.397 171.553 718.978 174.658C718.18 176.432 716.762 181.488 715.786 185.48C697.521 185.835 676.951 184.504 673.848 177.674C673.316 176.521 672.518 175.634 671.454 174.836C663.829 169.158 643.968 169.957 642.461 168.36C640.688 166.586 620.295 156.385 619.852 152.039C619.408 147.603 616.66 130.484 603.094 135.185C601.055 135.894 599.37 136.693 598.04 137.491L591.213 125.871C591.213 125.871 589.883 117.976 588.11 112.211C586.337 106.445 575.697 104.227 575.697 104.227L573.037 95.8003L567.274 91.8086L570.82 90.4781L571.352 81.6077L574.899 77.2612L576.583 72.3824L568.249 70.6084L566.476 67.5037L563.816 58.1898L561.599 50.65L559.383 44.8842C559.383 44.8842 556.279 32.9092 559.383 30.6916C560.092 30.1593 561.333 30.3367 562.752 30.869Z" fill="#F0F1F5" stroke="white" stroke-miterlimit="10" stroke-linejoin="round"/>
<path d="M688.389 202.068C698.054 203.398 707.895 207.39 691.493 227.26C678.725 242.694 660.017 260.524 641.486 272.499L627.743 245.355L629.516 245L651.682 238.436C651.682 238.436 664.095 221.583 662.765 218.034C662.233 216.438 659.928 214.486 657.711 212.89L657.445 206.592L660.105 197.278H665.425L661.879 193.73L662.322 188.319L668.085 189.206L668.617 182.198C669.238 183.351 669.858 184.859 670.745 186.988C673.316 193.73 678.636 200.826 688.389 202.068Z" fill="#F0F1F5" stroke="white" stroke-miterlimit="10" stroke-linejoin="round"/>
<path d="M668.617 182.198L668.085 189.206L662.322 188.319L661.879 193.729L665.425 197.278H660.105L657.445 206.592L657.711 212.89C655.14 211.027 652.657 209.608 652.657 209.608L633.595 207.39L626.058 195.415L626.679 194.262C629.516 195.77 632.708 196.568 636.255 196.302C650.795 195.415 661.967 181.754 664.538 180.335C666.312 179.448 667.376 179.803 668.617 182.198Z" fill="#F0F1F5" stroke="white" stroke-miterlimit="10" stroke-linejoin="round"/>
<path d="M578.623 145.297L585.007 145.829L590.061 151.24L596.09 151.418C598.484 155.942 602.385 161.087 605.754 166.852C612.138 177.94 617.901 189.649 626.679 194.351L626.058 195.504L633.595 207.479L652.658 209.696C652.658 209.696 655.229 211.116 657.711 212.978C659.928 214.575 662.145 216.527 662.765 218.123C664.095 221.671 651.682 238.525 651.682 238.525L629.516 245.089L627.743 245.444L599.902 250.855L585.361 264.604L582.701 261.943L550.428 259.282L549.098 268.596L542.803 270.725C536.241 256.887 526.134 243.315 515.051 223.8C497.761 193.73 484.993 155.676 475.684 156.563C474.176 156.74 472.846 156.74 471.605 156.74L471.25 143.257L472.492 140.951C474.62 143.612 481.713 143.878 483.929 143.878C486.589 143.878 488.008 139.443 497.229 135.628C506.362 131.726 495.988 124.097 493.417 121.791C490.757 119.484 494.569 117.622 503.436 116.202C506.894 115.67 510.174 115.227 513.189 115.227C517.888 115.227 522.144 116.025 527.02 117.976C535 121.17 564.525 144.233 564.525 144.233L578.623 145.297Z" fill="#F0F1F5" stroke="white" stroke-miterlimit="10" stroke-linejoin="round"/>
<path d="M627.743 245.355L641.486 272.587C636.077 276.047 630.757 279.063 625.526 281.369C606.729 289.707 570.111 310.464 555.747 303.9C552.556 302.481 550.516 299.642 549.984 295.118C548.832 286.159 546.349 278.353 542.802 270.725L549.098 268.596L550.428 259.282L582.701 261.943L585.361 264.604L599.902 250.855L627.743 245.355Z" fill="#F0F1F5" stroke="white" stroke-miterlimit="10" stroke-linejoin="round"/>
<path d="M546.881 320.665L550.693 314.19C559.737 326.697 573.303 327.673 590.238 322.084C609.301 315.875 624.373 304.343 622.068 318.98C619.852 333.527 600.966 375.041 587.489 386.129C576.495 395.088 551.225 416.643 533.759 435.537L527.907 429.682L528.35 394.733C528.35 394.733 532.34 391.007 536.95 387.016C542.004 382.669 547.768 377.968 550.073 377.436C554.506 376.549 566.387 375.661 566.387 375.661L592.898 347.72C592.898 347.72 580.928 346.478 576.938 346.478C572.86 346.478 556.545 337.164 553.531 336.277C550.427 335.39 544.576 324.834 544.576 324.834L546.881 320.665Z" fill="#F0F1F5" stroke="white" stroke-miterlimit="10" stroke-linejoin="round"/>
<path d="M612.759 550.408C615.419 562.383 614.532 564.601 611.872 564.601C609.212 564.601 609.212 569.923 609.212 579.681C609.212 589.349 597.686 615.961 591.479 639.911C585.361 663.772 564.969 663.772 557.876 658.45C550.782 653.128 549.984 638.935 549.984 628.379C549.984 617.735 556.102 618.71 557.876 608.066C559.649 597.422 557.876 591.212 559.649 577.907C561.422 564.69 575.608 566.464 586.159 559.367C595.292 553.247 597.952 541.893 601.853 536.038C602.74 534.708 604.868 534.53 605.932 535.861C608.059 538.256 611.074 542.957 612.759 550.408Z" fill="#F0F1F5" stroke="white" stroke-miterlimit="10" stroke-linejoin="round"/>
<path d="M591.125 125.96L597.952 137.58C597.774 137.757 597.508 137.846 597.331 138.023C592.721 136.072 586.071 133.233 585.007 135.007C584.12 136.604 580.573 142.281 578.623 145.386L564.437 144.144C564.437 144.144 534.911 121.081 526.932 117.888C522.144 115.936 517.799 115.138 513.1 115.138L509.021 99.5259C509.11 99.5259 509.11 99.4372 509.199 99.4372C525.158 89.7684 531.808 87.0186 531.808 76.9063C531.808 66.7054 532.34 66.2619 535.887 63.6007C538.015 62.0041 543.335 57.6576 547.236 54.4642C548.743 54.4642 549.984 54.6416 550.96 55.1739C553.974 56.7705 559.737 57.835 563.816 58.2785L566.476 67.5924L568.249 70.6971L576.584 72.4711L574.899 77.3499L571.352 81.6964L570.82 90.5668L567.274 91.8973L573.037 95.889L575.697 104.316C575.697 104.316 586.337 106.533 588.11 112.299C589.795 117.976 591.125 125.96 591.125 125.96Z" fill="#F0F1F5" stroke="white" stroke-miterlimit="10" stroke-linejoin="round"/>
<path d="M596.09 151.329L590.061 151.152L585.007 145.741L578.623 145.208C580.574 142.104 584.12 136.338 585.007 134.83C586.071 133.056 592.721 135.983 597.331 137.846C592.366 141.483 593.164 146.007 596.09 151.329Z" fill="#F0F1F5" stroke="white" stroke-miterlimit="10" stroke-linejoin="round"/>
<path d="M466.995 328.471L467.615 323.237L473.733 322.617L474.354 312.238L479.94 304.876H485.791L487.565 296.36L487.387 289.619L496.342 290.417L500.244 284.296L505.209 288.111H522.321C522.321 288.111 534.113 298.134 535.266 299.287C536.153 300.174 539.965 305.408 541.739 308.069L540.852 308.158L536.507 312.593V320.222L546.704 320.665L544.398 324.745C544.398 324.745 550.162 335.39 553.354 336.188C556.368 337.075 572.771 346.389 576.761 346.389C580.751 346.389 592.72 347.631 592.72 347.631L566.21 375.573C566.21 375.573 554.24 376.46 549.896 377.347C547.59 377.879 541.739 382.492 536.773 386.927C534.468 386.661 532.251 386.395 532.251 386.395L527.198 382.314L515.051 389.145H501.485L494.126 380.54L483.043 379.564L482.599 372.557L474.354 371.67V360.759L469.3 359.251L466.285 353.397L454.493 350.381L455.646 343.018L466.551 342.131L466.285 333.261L466.995 328.471Z" fill="#1FC7CC" stroke="white" stroke-miterlimit="10" stroke-linejoin="round"/>
<path d="M547.147 54.3756C541.029 54.553 531.542 58.3673 526.932 59.0769C521.168 59.9639 515.849 64.3104 512.391 62.6251C508.844 60.7623 500.51 61.2945 496.963 63.5121L489.87 60.4075L491.555 68.8343L487.565 69.2779L485.969 69.6327C485.791 68.7456 485.437 67.9473 484.905 67.5038C479.585 63.0686 470.719 63.0686 465.399 67.0603C460.079 71.0519 458.749 72.826 451.212 68.3908C443.676 63.9556 440.573 63.5121 433.125 66.6167C425.588 69.7214 407.678 63.246 403.866 52.6015C400.585 43.465 395.265 41.5135 395.265 37.5218C395.265 34.1511 398.723 21.2003 392.251 16.6764L396.772 12.1525L398.723 8.60433L396.595 3.37079L402.713 0.354858L406.26 1.68542H412.909H412.998C413.175 1.95153 413.353 2.30635 413.53 2.66116C415.924 6.20932 421.776 9.75748 421.776 9.75748C427.628 10.9106 439.154 14.4588 444.474 10.2897C449.794 6.20932 452.365 1.41931 460.079 1.41931C467.704 1.41931 481.004 5.23358 492.796 9.40267C504.588 13.4831 528.528 12.3299 530.922 9.93489C531.454 9.40267 532.252 8.33822 533.049 7.09636H545.817L552.91 12.4186L552.467 22.6196L558.23 24.3936L563.993 26.6112L562.663 30.6916C561.245 30.1594 560.003 29.982 559.117 30.6029C556.014 32.8205 559.117 44.7956 559.117 44.7956L561.333 50.5613L563.55 58.1012C559.471 57.5689 553.708 56.5932 550.694 54.9965C549.896 54.6417 548.654 54.3756 547.147 54.3756Z" fill="#F0F1F5" stroke="white" stroke-miterlimit="10" stroke-linejoin="round"/>
<path d="M542.004 308.069L546.792 307.537C547.147 308.069 547.413 308.601 547.679 309.133C548.566 310.996 549.63 312.593 550.694 314.101L546.881 320.576L536.685 320.133V312.504L541.029 308.069H542.004Z" fill="#F0F1F5" stroke="white" stroke-miterlimit="10" stroke-linejoin="round"/>
<path d="M546.792 307.625L542.005 308.158C540.143 305.497 536.419 300.263 535.532 299.376C534.379 298.134 522.587 288.199 522.587 288.199H505.386L500.421 284.385L496.52 290.506L487.565 289.707L487.387 281.901L491.2 273.297L491.821 262.653C491.821 262.653 496.875 262.653 497.672 262.653C498.204 262.653 502.46 259.193 505.564 256.709C508.844 263.185 512.391 269.217 515.849 274.184C522.853 284.296 535.266 290.239 544.133 303.19C545.108 304.609 545.995 306.029 546.792 307.625Z" fill="#1FC7CC" stroke="white" stroke-miterlimit="10" stroke-linejoin="round"/>
<path d="M509.022 99.4372C493.328 109.106 492.353 110.437 485.348 108.219C481.979 107.154 481.713 104.493 482.688 101.832C483.664 98.905 486.058 96.0665 487.122 95.3569C489.338 94.0263 489.781 87.4622 487.565 85.5994C486.678 84.8898 484.816 84.9785 483.132 85.2446C485.171 78.9466 486.767 72.9147 486.058 69.6327L487.654 69.2779L491.643 68.8344L489.959 60.4075L497.052 63.5121C500.598 61.2945 508.933 60.851 512.479 62.6251C516.026 64.3105 521.346 59.964 527.02 59.0769C531.72 58.2786 541.207 54.4643 547.236 54.3756C543.335 57.569 538.015 61.9154 535.887 63.5121C532.34 66.1732 531.808 66.6168 531.808 76.8177C531.808 86.93 525.247 89.6798 509.199 99.3485C509.11 99.3485 509.11 99.4372 509.022 99.4372Z" fill="#F0F1F5" stroke="white" stroke-miterlimit="10" stroke-linejoin="round"/>
<path d="M483.131 379.476L494.215 380.452L501.574 389.056H515.139L527.286 382.226L532.34 386.306C532.34 386.306 534.557 386.572 536.862 386.838C532.251 390.83 528.262 394.555 528.262 394.555L527.818 429.505L533.67 435.359C523.03 446.625 515.228 457.003 514.962 463.124C514.962 463.656 514.873 464.099 514.962 464.72L499.002 453.366V448.931L464.955 430.303V420.634L475.595 404.224L467.172 382.314L473.733 375.661L478.787 375.928L480.294 379.21L483.131 379.476Z" fill="#1FC7CC" stroke="white" stroke-miterlimit="10" stroke-linejoin="round"/>
<path d="M437.026 496.742C434.721 492.13 430.997 484.767 430.465 483.525C429.578 481.751 424.702 478.647 424.702 478.647L422.928 460.551L422.84 460.285L428.958 460.729L436.051 451.326L436.671 447.512H432.77L432.593 443.165L434.011 443.343L437.292 440.415L435.253 435.093L433.391 430.569L433.568 430.48H464.955L499.002 449.108V453.544L514.962 464.898C514.075 483.792 518.331 501.887 522.055 517.765L506.539 524.862L502.106 524.418L497.761 528.41C497.761 528.41 487.565 527.523 484.461 525.749C481.447 523.975 472.58 528.41 469.92 529.297L471.871 524.862C471.871 524.862 470.896 518.741 470.896 516.08C470.896 513.419 466.463 508.984 466.463 508.984L458.926 509.959L457.596 507.653L439.065 500.557C438.888 500.468 438.09 498.871 437.026 496.742Z" fill="#F0F1F5" stroke="white" stroke-miterlimit="10" stroke-linejoin="round"/>
<path d="M509.021 99.4371L513.1 115.049C510.085 115.049 506.805 115.493 503.347 116.025C494.48 117.444 490.668 119.307 493.328 121.613C495.988 123.919 506.273 131.637 497.14 135.451C487.919 139.265 486.501 143.7 483.841 143.7C481.536 143.7 474.531 143.523 472.403 140.773L478.698 128L479.585 112.122L474.176 110.17C474.62 108.928 474.886 107.864 475.152 106.8C475.418 105.558 476.127 103.784 477.102 101.389L482.688 101.743C481.802 104.405 481.979 107.066 485.348 108.13C492.441 110.436 493.328 109.195 509.021 99.4371Z" fill="#F0F1F5" stroke="white" stroke-miterlimit="10" stroke-linejoin="round"/>
<path d="M487.565 289.707L487.742 296.449L485.969 304.964H480.117L474.531 312.327L473.91 322.705L467.792 323.326L467.172 328.56L463.714 326.253L458.66 320.931L460.167 308.779L457.773 307.892L456.621 309.932L447.754 311.44L451.301 314.988V322.084L441.282 332.463L428.869 328.382L421.51 332.729L415.658 337.164L409.983 334.237L395.531 332.729L391.187 325.632L385.246 326.874L381.434 332.196L371.414 332.729L365.563 322.439L365.031 321.552L366.272 317.117L361.839 315.343L362.105 305.94L355.012 305.674L359.711 298.844L357.051 295.828L361.484 292.014L360.597 288.731L365.031 283.409L367.07 276.579L375.316 277.466L374.429 240.388L374.34 235.598H383.827V216.438L491.466 217.325C493.062 221.139 494.303 225.042 495.19 228.768C497.672 238.969 501.396 248.46 505.741 256.887C502.726 259.37 498.47 262.83 497.85 262.83C496.963 262.83 491.998 262.83 491.998 262.83L491.377 273.474L487.565 282.079V289.707Z" fill="#1FC7CC" stroke="white" stroke-miterlimit="10" stroke-linejoin="round"/>
<path d="M491.289 217.236L383.65 216.349V140.596L382.143 139.088L380.104 134.032L382.764 129.597L382.498 123.476L388.172 115.581C407.146 123.121 420.712 127.024 425.677 125.073C432.327 122.412 445.538 117.089 457.507 120.992C461.941 122.5 465.399 121.879 467.881 120.016C469.477 127.024 471.605 136.693 471.782 139.354C471.871 139.886 472.048 140.418 472.403 140.862L471.162 143.168L471.516 156.651C465.044 156.917 461.941 155.676 460.079 151.595C457.862 146.716 446.779 134.298 452.542 148.047C458.305 161.796 462.295 165.344 469.389 177.231C475.063 186.811 485.171 202.245 491.289 217.236Z" fill="#F0F1F5" stroke="white" stroke-miterlimit="10" stroke-linejoin="round"/>
<path d="M487.565 85.5994C489.87 87.4622 489.338 94.0263 487.121 95.3568C485.969 96.0665 483.663 98.905 482.688 101.832L477.102 101.477C478.787 97.1309 481.181 91.099 483.131 85.2446C484.816 84.9785 486.589 84.8898 487.565 85.5994Z" fill="#F0F1F5" stroke="white" stroke-miterlimit="10" stroke-linejoin="round"/>
<path d="M483.131 552.182C486.235 555.287 482.245 568.504 482.245 568.504L477.368 569.391L476.127 579.06C476.127 579.06 468.59 567.085 467.26 566.198C465.93 565.311 469.477 557.327 469.477 557.327L468.59 552.892L461.941 552.626L456.177 549.521L452.631 545.175L457.507 540.74V534.885L461.941 533.643L458.394 529.208V520.338L462.384 515.902L458.837 509.782L466.374 508.806C466.374 508.806 470.807 513.241 470.807 515.902C470.807 518.564 471.782 524.684 471.782 524.684L469.832 529.119C467.172 530.006 470.275 541.981 470.718 544.199C471.162 546.505 480.028 549.078 483.131 552.182Z" fill="#F0F1F5" stroke="white" stroke-miterlimit="10" stroke-linejoin="round"/>
<path d="M467.261 382.403L463.803 385.774L453.784 386.661L448.73 389.588L445.183 386.306L436.051 389.056L425.411 378.944L422.84 381.693L417.786 379.919L414.86 382.492L404.132 374.153L403.954 373.976L404.22 368.388L396.595 366.259V360.404L386.487 352.155L382.143 345.059L370.617 342.043L371.149 332.64L381.168 332.108L385.069 326.786L391.009 325.544L395.354 332.64L409.806 334.148L415.481 337.075L421.333 332.64L428.692 328.294L441.105 332.374L451.124 321.996V314.988L447.577 311.44L456.444 309.932L457.596 307.892L459.99 308.69L458.483 320.842L463.537 326.165L466.995 328.471L466.463 333.261L466.729 342.043L455.823 343.018L454.67 350.381L466.463 353.308L469.389 359.251L474.442 360.67V371.581L482.688 372.468L483.132 379.476L480.294 379.298L478.787 376.016L473.822 375.75L467.261 382.403Z" fill="#1FC7CC" stroke="white" stroke-miterlimit="10" stroke-linejoin="round"/>
<path d="M479.585 112.299L478.698 128.177L472.403 140.951C472.049 140.507 471.871 140.064 471.783 139.443C471.605 136.782 469.477 127.113 467.881 120.105C471.073 117.888 472.935 113.985 474.176 110.348L479.585 112.299Z" fill="#F0F1F5" stroke="white" stroke-miterlimit="10" stroke-linejoin="round"/>
<path d="M433.391 430.569L428.692 432.698L425.766 434.738L426.652 419.126L428.16 417.618V412.917L440.839 401.386L436.051 400.765V389.056L445.183 386.306L448.73 389.588L453.784 386.661L463.803 385.774L467.26 382.403L475.684 404.313L465.044 420.723V430.481H433.568L433.391 430.569Z" fill="#1FC7CC" stroke="white" stroke-miterlimit="10" stroke-linejoin="round"/>
<path d="M522.055 517.677L506.539 524.773L502.106 524.329L497.761 528.321C497.761 528.321 487.565 527.434 484.461 525.66C481.447 523.886 472.58 528.321 469.921 529.208C467.261 530.095 470.364 542.07 470.807 544.288C471.25 546.505 480.117 549.078 483.22 552.182C486.323 555.287 482.334 568.504 482.334 568.504L477.457 569.391L476.216 579.06C476.216 579.06 468.679 567.085 467.349 566.198C466.019 565.311 469.566 557.327 469.566 557.327L468.679 552.892L461.941 552.626L456.178 549.521L432.327 558.48L432.593 563.448C432.593 563.448 433.48 566.996 434.366 567.617C435.253 568.149 448.198 570.544 453.872 573.205C459.458 575.866 455.646 581.81 456.887 585.89C458.128 589.97 455.38 596.268 455.38 596.268L457.153 605.937L451.301 611.88L452.188 620.396L439.775 630.331C441.016 630.508 441.814 630.774 441.814 630.774L446.513 644.967L447.045 664.482L448.818 673.973L458.217 674.594C458.217 665.635 452.897 661.466 469.034 655.877C484.373 650.644 480.117 629.621 473.556 612.501C473.112 611.348 473.024 610.195 473.29 608.953C475.772 595.913 516.026 581.011 525.247 562.029C530.212 551.473 526.4 536.038 522.055 517.677Z" fill="#F0F1F5" stroke="white" stroke-miterlimit="10" stroke-linejoin="round"/>
<path d="M458.837 509.871L462.384 515.991L458.394 520.426V529.297L461.941 533.732L457.508 534.974V540.74L452.631 545.175L456.178 549.521L432.327 558.48L432.593 563.448L418.407 567.617L418.673 574.713C418.673 574.713 414.594 574.713 409.806 578.261C406.437 580.834 403.334 584.914 401.826 586.954L394.29 586.777C394.911 585.89 395.531 584.826 394.822 584.737C393.581 584.471 386.576 583.85 385.335 583.584C384.182 583.318 375.316 582.697 372.39 582.963C371.415 583.051 369.907 583.229 368.311 583.495L357.938 573.028L356.164 540.74L374.252 539.853L374.695 520.781L379.128 523.442H386.221L387.551 527.789L393.315 530.893L401.738 530.45L403.954 527.789L407.058 533.555L415.481 536.571L421.599 541.893H426.475L428.692 536.571L426.918 532.135L421.155 533.022L415.392 530.361L417.077 510.846L413.087 505.524L420.623 497.984L436.937 496.476C438.001 498.605 438.799 500.202 438.799 500.202L457.33 507.298L458.837 509.871Z" fill="#1FC7CC" stroke="white" stroke-miterlimit="10" stroke-linejoin="round"/>
<path d="M439.597 630.242C440.839 630.419 441.637 630.686 441.637 630.686L446.336 644.878L446.868 664.393L441.016 663.24L436.938 675.658L446.336 680.36L448.641 673.884L458.04 674.505C458.04 679.029 456.621 684.884 450.237 692.601C440.661 704.487 418.495 747.775 387.995 751.323C357.494 754.871 323.891 764.185 323.447 743.428C323.093 728.082 313.428 707.415 305.094 692.69L313.074 685.505C313.074 685.505 312.453 692.601 317.773 693.754C323.093 694.996 331.338 697.302 334.885 691.98C338.432 686.658 338.432 684.351 338.432 677.255C338.432 674.15 338.432 664.038 338.432 653.66L345.525 663.062L344.283 673.707H353.77C353.77 673.707 363.169 667.232 363.169 665.458C363.169 663.683 365.474 656.587 365.474 656.587C376.114 663.063 387.906 664.216 389.147 658.893C390.3 653.571 387.374 651.265 393.226 651.265C399.078 651.265 402.624 645.41 402.624 643.636C402.624 641.862 407.944 631.839 413.885 631.218C417.697 630.774 421.333 629.621 424.347 628.911C425.943 628.557 427.362 628.291 428.603 628.291C431.174 628.291 436.672 629.444 439.597 630.242ZM421.599 706.794C424.613 704.487 423.372 697.923 418.584 693.311C413.885 688.609 410.959 694.464 410.959 694.464L405.196 699.609L403.245 706.261C403.245 706.261 403.954 710.076 406.969 712.382C409.984 714.777 418.673 709.189 421.599 706.794Z" fill="#1FC7CC" stroke="white" stroke-miterlimit="10" stroke-linejoin="round"/>
<path d="M401.826 586.866C403.334 584.825 406.437 580.745 409.806 578.173C414.505 574.625 418.673 574.625 418.673 574.625L418.407 567.528L432.593 563.359C432.593 563.359 433.48 566.907 434.366 567.528C435.253 568.06 448.198 570.455 453.872 573.117C459.458 575.778 455.646 581.721 456.887 585.801C458.128 589.882 455.38 596.18 455.38 596.18L457.153 605.848L451.301 611.792L452.188 620.307L439.775 630.242C436.76 629.444 431.352 628.29 428.869 628.29C427.628 628.29 426.209 628.557 424.613 628.911L422.308 623.5L417.254 621.46L412.555 621.194L409.274 618.533V610.55L405.196 611.792L403.068 605.316H400.408L395.709 602.3L391.275 594.406L393.049 588.196C393.049 588.196 393.669 587.487 394.29 586.688L401.826 586.866Z" fill="#F0F1F5" stroke="white" stroke-miterlimit="10" stroke-linejoin="round"/>
<path d="M446.956 664.304L448.73 673.796L446.424 680.271L437.026 675.57L441.104 663.151L446.956 664.304Z" fill="#F0F1F5" stroke="white" stroke-miterlimit="10" stroke-linejoin="round"/>
<path d="M325.398 389.588C325.664 387.725 325.752 386.04 325.752 385.508C325.752 384.266 325.486 381.959 325.486 381.959L331.604 375.484L338.077 375.218L343.929 380.54L356.076 383.822L361.661 384.709L363.967 377.968L368.4 378.234L370.705 379.387L377.798 374.686H381.611L382.232 376.105L384.892 376.46L388.172 371.404L393.758 373.178L397.305 374.686L404.043 374.242L414.771 382.58L417.786 379.919L422.84 381.693L425.5 379.032L436.139 389.056V400.853L440.839 401.474L428.16 412.917V417.618L426.652 419.126L425.766 434.738L423.815 436.158L419.825 443.697L420.18 445.738L422.84 460.196L422.928 460.462L424.702 478.558C424.702 478.558 429.578 481.663 430.465 483.437C430.997 484.679 434.721 492.041 437.026 496.654L420.712 498.162L413.175 505.702L417.165 511.024L415.481 530.539L421.244 533.2L427.007 532.313L428.78 536.748L426.564 542.07H421.687L415.569 536.748L407.146 533.732L404.043 527.966L401.826 530.627L393.403 531.071L387.64 527.966L386.31 523.62H379.217L374.784 520.959L359.8 524.063L358.913 513.419L356.253 507.653L355.366 488.138L343.84 487.251V484.59H334.974L331.427 494.259L316.886 494.791C316.886 494.791 312.453 489.025 311.566 487.695C310.68 486.364 307.133 473.946 307.133 473.946L269.007 477.228C268.475 476.163 267.943 475.01 267.411 473.946L270.781 473.768L271.047 466.938L276.81 462.769L279.913 464.898L282.839 460.196L287.538 459.93L288.425 465.253L290.73 465.519L303.675 453.366L303.143 440.948C303.143 440.948 308.995 435.625 308.995 434.827C308.995 433.94 310.502 432.166 310.502 432.166L318.748 426.045C318.748 426.045 318.127 413.006 319.014 410.433C319.901 407.772 322.029 396.241 323.713 394.467C324.688 393.402 325.132 391.539 325.398 389.588Z" fill="#F0F1F5" stroke="white" stroke-miterlimit="10" stroke-linejoin="round"/>
<path d="M432.593 443.165L428.958 442.722L426.652 446.27L420.18 445.826L419.825 443.786L423.815 436.158L425.766 434.738L428.692 432.698L433.391 430.569L435.253 435.093L437.292 440.415L434.011 443.254L432.593 443.165Z" fill="#F0F1F5" stroke="white" stroke-miterlimit="10" stroke-linejoin="round"/>
<path d="M436.671 447.423L436.051 451.237L428.958 460.729L422.928 460.285L420.18 445.826L426.652 446.27L428.958 442.722L432.593 443.165L432.859 447.423H436.671Z" fill="#F0F1F5" stroke="white" stroke-miterlimit="10" stroke-linejoin="round"/>
<path d="M422.219 623.589L424.524 629C421.51 629.798 417.875 630.952 414.062 631.306C408.121 631.839 402.802 641.951 402.802 643.725C402.802 645.499 399.255 651.354 393.403 651.354C387.551 651.354 390.389 653.66 389.325 658.982C388.083 664.304 376.291 663.151 365.651 656.676C365.651 656.676 363.346 663.772 363.346 665.546C363.346 667.32 353.948 673.796 353.948 673.796H344.46L345.702 663.151L338.609 653.749C338.609 640.62 338.609 627.137 338.609 627.137C338.609 627.137 343.308 633.613 346.234 626.605C349.248 619.509 347.475 590.591 347.475 590.591L367.513 587.043L371.06 591.744L381.079 586.422L394.378 586.688C393.846 587.487 393.137 588.196 393.137 588.196L391.364 594.406L395.797 602.3L400.496 605.316H403.156L405.284 611.792L409.363 610.55V618.533L412.643 621.194L417.343 621.46L422.219 623.589Z" fill="#F0F1F5" stroke="white" stroke-miterlimit="10" stroke-linejoin="round"/>
<path d="M418.673 693.31C423.372 698.012 424.613 704.487 421.687 706.793C418.673 709.188 409.984 714.777 407.146 712.382C404.132 710.075 403.422 706.261 403.422 706.261L405.373 699.608L411.136 694.464C411.047 694.375 413.973 688.52 418.673 693.31Z" fill="#F0F1F5" stroke="white" stroke-miterlimit="10" stroke-linejoin="round"/>
<path d="M404.22 368.388L403.954 373.976L404.132 374.153L397.393 374.597L393.847 373.089L388.261 371.315L384.98 376.371L382.32 376.016L381.7 374.597H377.887L370.794 379.298L368.489 378.145L364.055 377.879L361.75 384.621L356.164 383.734L344.017 380.451L338.165 375.129L331.693 375.395L325.575 381.871C325.575 381.871 325.841 384.177 325.841 385.419C325.841 385.951 325.752 387.725 325.486 389.499L308.995 388.612L305.448 396.507C303.498 394.555 301.192 392.16 300.394 391.185C298.976 389.411 291.617 382.314 290.73 381.161C289.843 379.919 287.715 364.041 287.715 364.041C287.715 364.041 293.922 356.679 297.203 354.284C298.089 353.663 298.267 352.776 298.089 351.711L302.788 352.244L307.222 348.962C307.222 348.962 308.108 352.865 310.768 352.244C313.428 351.711 330.895 343.994 330.895 342.841C330.895 341.599 329.388 338.761 329.388 338.761L341.801 337.874L355.632 326.963L355.012 322.528L365.385 322.35L371.237 332.64L370.705 342.043L382.232 345.059L386.665 352.155L396.684 360.404V366.259L404.22 368.388Z" fill="#F0F1F5" stroke="white" stroke-miterlimit="10" stroke-linejoin="round"/>
<path d="M368.311 583.406C369.907 583.14 371.326 582.874 372.39 582.874C375.404 582.608 384.182 583.229 385.335 583.495C386.576 583.761 393.581 584.382 394.822 584.648C395.442 584.826 394.911 585.801 394.29 586.688L380.99 586.422L370.971 591.744L367.425 587.043L347.386 590.591C347.386 590.591 349.16 619.509 346.145 626.605C343.219 633.702 338.52 627.137 338.52 627.137C338.52 627.137 338.52 640.62 338.52 653.749C338.52 664.127 338.52 674.239 338.52 677.344C338.52 684.44 338.52 686.746 334.973 692.069C331.427 697.391 323.181 695.085 317.861 693.843C312.541 692.601 313.162 685.593 313.162 685.593L305.182 692.778C302.256 687.545 299.419 683.021 297.38 679.739C289.4 667.32 291.173 635.476 288.07 627.936C285.321 621.194 265.461 602.744 264.929 580.568C270.692 578.616 276.721 575.689 277.785 576.754C278.938 577.907 283.105 581.455 283.105 581.455H324.688L327.703 584.471C327.703 584.471 338.077 587.753 340.914 587.132C343.929 586.511 358.026 585.624 360.42 585.003C361.839 584.559 365.297 583.939 368.311 583.406Z" fill="#1FC7CC" stroke="white" stroke-miterlimit="10" stroke-linejoin="round"/>
<path d="M244.536 133.499C247.196 131.016 251.452 127.024 251.452 127.024L251.186 117.888L262.978 110.17L262.535 100.768C271.579 104.493 295.695 106.356 298.178 112.743C300.838 119.396 306.601 124.186 315.467 124.629C324.334 125.161 324.334 129.508 330.008 130.838C335.771 132.169 340.648 128.621 340.205 119.75C340.205 119.75 337.545 94.0262 367.159 106.888C374.695 110.17 381.7 113.098 388.083 115.581L382.409 123.476L382.675 129.597L380.015 134.032L382.054 139.088L383.562 140.596V216.349V235.509H374.163L374.252 240.299C358.824 231.783 308.552 204.551 304.473 203.753C301.902 203.31 297.823 205.261 294.099 207.124C290.641 209.075 287.627 210.849 286.74 210.849C284.967 210.849 280.356 204.817 278.051 204.285C275.657 203.664 266.525 202.422 266.525 202.422C266.525 202.422 266.436 202.334 266.347 202.245C265.727 201.003 262.003 193.996 261.205 193.641C260.318 193.286 248.792 188.939 248.792 188.939L243.206 173.86L247.019 170.933L246.753 144.055C246.753 144.055 242.053 136.338 242.674 135.451C242.763 135.274 243.561 134.475 244.536 133.499Z" fill="#F0F1F5" stroke="white" stroke-miterlimit="10" stroke-linejoin="round"/>
<path d="M364.765 283.409L360.243 288.731L361.218 292.014L356.696 295.828L359.445 298.755L354.657 305.585L361.75 305.851L361.484 315.254L365.917 317.028L364.765 321.463L365.297 322.439L355.012 322.705L355.632 327.14L341.712 337.962L329.299 338.938C329.299 338.938 330.806 341.865 330.806 343.018C330.806 344.172 313.428 351.889 310.68 352.421C308.108 353.042 307.133 349.139 307.133 349.139L302.788 352.421L298.089 351.889C297.912 348.873 294.986 344.704 294.72 343.018C294.454 340.623 288.247 337.075 285.588 333.527C283.016 329.979 285.588 329.979 285.588 329.979H299.508C299.508 329.979 295.075 324.745 294.454 320.576C293.922 316.407 292.947 307.271 292.947 305.142C292.947 303.102 287.095 301.061 287.095 301.061L284.346 301.86C284.258 301.594 284.258 301.505 284.08 301.416C283.194 300.263 283.016 297.957 281.154 296.892L279.558 287.49L297.735 267.176L299.508 239.767L301.281 232.138L297.291 229.122L294.011 207.124C297.735 205.261 301.813 203.31 304.296 203.753C308.463 204.551 358.647 231.784 374.163 240.299L374.961 277.377L366.715 276.49L364.765 283.409Z" fill="#F0F1F5" stroke="white" stroke-miterlimit="10" stroke-linejoin="round"/>
<path d="M374.695 520.781L374.252 539.853L356.164 540.74L357.938 573.028L368.311 583.406C365.297 583.938 361.839 584.559 360.243 584.914C357.938 585.535 343.751 586.422 340.737 587.043C337.811 587.575 327.526 584.382 327.526 584.382L324.511 581.366H282.928C282.928 581.366 278.76 577.818 277.608 576.665C276.544 575.6 270.515 578.616 264.751 580.479C264.574 577.907 264.84 575.245 265.283 572.584C270.16 546.86 284.79 532.756 278.938 508.363C276.278 497.186 273.529 487.34 268.653 477.139L306.778 473.857C306.778 473.857 310.325 486.275 311.212 487.606C312.098 488.848 316.531 494.702 316.531 494.702L331.072 494.17L334.619 484.501H343.485V487.162L355.012 488.049L355.898 507.564L358.558 513.33L359.445 523.975L374.695 520.781Z" fill="#F0F1F5" stroke="white" stroke-miterlimit="10" stroke-linejoin="round"/>
<path d="M276.632 462.769L273.263 460.462L263.953 467.736C262.358 464.72 260.407 461.704 258.279 458.511L260.584 452.745L264.131 454.785L267.677 451.769L261.205 447.955L260.318 442.101L270.337 443.254L271.224 436.778L275.036 442.633H279.115L281.509 439.972L282.041 442.899L285.854 442.633L287.361 433.763L288.247 425.158L282.928 423.118L283.194 417.796L288.247 413.982L287.006 409.635L276.987 410.167L276.189 401.386L286.12 401.297L292.947 402.184L302.966 405.2L305.271 396.596L308.818 388.701L325.309 389.588C325.043 391.539 324.511 393.402 323.624 394.289C321.851 396.063 319.812 407.506 318.925 410.256C318.039 412.917 318.659 425.868 318.659 425.868L310.414 431.988C310.414 431.988 308.906 433.763 308.906 434.65C308.906 435.537 303.054 440.77 303.054 440.77L303.586 453.189L290.641 465.341L288.336 465.075L287.449 459.753L282.75 460.019L279.824 464.72L276.632 462.769Z" fill="#F0F1F5" stroke="white" stroke-miterlimit="10" stroke-linejoin="round"/>
<path d="M276.278 401.474L259.432 401.652H257.57L246.309 399.7C246.221 391.628 243.561 382.847 232.478 381.25L236.29 375.395V367.767C236.29 367.767 247.196 356.856 250.122 357.122C253.136 357.388 256.594 361.203 257.481 361.203C258.368 361.203 263.421 360.937 263.687 357.388C263.953 353.84 268.741 342.93 268.741 342.93L272.82 341.156L273.086 334.325C273.086 334.325 276.1 335.212 276.898 331.664C277.785 328.116 281.066 319.867 281.952 319.512C282.839 319.157 289.311 318.625 289.311 316.23C289.311 313.924 287.538 310.021 286.386 308.513C285.322 307.271 285.144 303.456 284.258 301.682L286.918 300.884C286.918 300.884 292.769 302.924 292.769 304.964C292.769 307.093 293.656 316.23 294.277 320.31C294.897 324.479 299.331 329.713 299.331 329.713H285.499C285.499 329.713 282.839 329.713 285.499 333.261C288.159 336.809 294.365 340.357 294.631 342.752C294.897 344.438 297.823 348.607 298.001 351.711C298.178 352.776 297.912 353.663 297.114 354.284C293.833 356.679 287.627 364.041 287.627 364.041C287.627 364.041 289.666 380.008 290.641 381.161C291.528 382.314 298.887 389.411 300.306 391.185C301.104 392.16 303.409 394.555 305.36 396.507L303.054 405.111L293.035 402.095L286.208 401.208L276.278 401.474Z" fill="#1FC7CC" stroke="white" stroke-miterlimit="10" stroke-linejoin="round"/>
<path d="M301.281 232.138L299.508 239.678L297.735 267.088L279.647 287.401L281.243 296.804C280.888 296.626 280.356 296.36 279.824 296.271C276.544 295.65 272.465 301.505 270.426 301.505C268.298 301.505 258.634 298.312 253.846 298.844C249.147 299.376 244.979 303.9 241.167 303.9C237.354 303.9 232.921 297.691 229.995 299.199C226.981 300.707 220.774 300.973 215.809 297.425C210.755 293.876 200.47 295.384 200.47 295.384L190.983 305.142C190.983 305.142 190.096 309.4 190.451 312.859L183.18 307.803H178.393L169.083 302.481L168.639 296.715L160.216 292.723L159.596 281.458L189.919 278.974L195.682 270.104L195.327 243.759L209.868 241.275C209.868 241.275 226.183 226.284 231.148 223.534C234.517 221.76 254.289 209.696 266.525 202.068C266.613 202.245 266.702 202.245 266.702 202.245C266.702 202.245 275.835 203.487 278.228 204.108C280.534 204.64 285.144 210.672 286.918 210.672C287.804 210.672 290.819 208.809 294.277 206.946L297.557 228.856L301.281 232.138Z" fill="#F0F1F5" stroke="white" stroke-miterlimit="10" stroke-linejoin="round"/>
<path d="M287.095 409.724L288.336 414.07L283.282 417.885L283.016 423.207L288.336 425.247L287.449 433.851L285.942 442.722L282.13 442.988L281.598 440.061L279.204 442.722H275.125L271.313 436.867L270.426 443.343L260.407 442.189L261.293 448.044L267.766 451.858L264.219 454.874L260.673 452.834L258.368 458.6C253.934 452.036 248.437 444.851 241.699 436.778C234.606 428.352 241.699 426.134 244.359 414.159C244.359 414.159 244.713 413.095 245.068 411.232L258.9 411.409L259.52 401.74L276.366 401.563L277.164 410.345L287.095 409.724Z" fill="#F0F1F5" stroke="white" stroke-miterlimit="10" stroke-linejoin="round"/>
<path d="M289.489 316.407C289.489 318.802 283.016 319.334 282.13 319.689C281.332 319.955 278.051 328.294 277.076 331.842C276.278 335.39 273.263 334.414 273.263 334.414L272.997 341.244L268.83 343.018C268.83 343.018 264.131 353.929 263.776 357.477C263.51 361.025 258.456 361.291 257.481 361.291C256.683 361.291 253.136 357.477 250.122 357.122C247.196 356.856 236.29 367.767 236.29 367.767V375.395L232.478 381.25C230.084 380.806 227.158 380.806 223.789 381.339C201.711 384.354 210.489 372.379 202.155 368.033C197.987 365.904 190.717 364.573 181.23 365.46L181.407 338.583C181.407 338.583 183.801 336.809 185.574 336.809C187.348 336.809 189.121 331.221 190.894 328.56C192.667 325.899 191.515 318.536 190.539 314.988C190.451 314.367 190.273 313.657 190.273 312.948C190.008 309.488 190.894 305.23 190.894 305.23L200.293 295.562C200.293 295.562 210.578 294.054 215.631 297.602C220.597 301.15 226.803 300.884 229.818 299.376C232.744 297.868 237.177 304.077 240.989 304.077C244.802 304.077 248.969 299.642 253.58 299.021C258.368 298.4 268.032 301.594 270.16 301.594C272.199 301.594 276.366 295.739 279.558 296.36C280.09 296.449 280.622 296.626 280.977 296.804C282.839 297.868 283.016 300.086 283.903 301.328C284.08 301.416 284.169 301.594 284.169 301.771C285.144 303.634 285.233 307.359 286.297 308.601C287.715 310.198 289.489 314.101 289.489 316.407Z" fill="#14A2A7" stroke="white" stroke-miterlimit="10" stroke-linejoin="round"/>
<path d="M276.633 462.769L270.869 466.938L270.603 473.768L267.234 473.946C266.259 471.905 265.106 469.865 263.865 467.825L273.175 460.551L276.633 462.769Z" fill="#F0F1F5" stroke="white" stroke-miterlimit="10" stroke-linejoin="round"/>
<path d="M195.15 243.936L186.195 245.533V238.436L175.555 234.001L164.915 224.687L115.352 187.077L113.313 185.835L78.5565 164.989L78.4679 159.224L78.2905 149.023L92.4768 140.685L106.663 141.572L119.076 129.597L125.283 130.129L125.726 124.363L121.293 122.589V114.162L146.03 112.92V111.146L149.133 108.929L141.597 102.276L142.483 85.422C142.483 85.422 139.114 81.8738 135.39 79.3014C148.69 76.2855 165.447 66.3506 187.614 62.9799C205.79 60.1413 225.65 57.9237 237.62 56.948L233.187 63.4234L232.744 74.0679C232.744 74.0679 235.049 81.1642 233.187 83.7366C231.502 86.3977 225.65 89.9459 225.65 92.1635C225.65 94.3811 228.31 105.913 230.97 107.687C233.63 109.461 240.28 112.565 240.28 112.565L244.625 133.854C243.649 134.83 242.851 135.628 242.674 135.895C242.142 136.782 246.753 144.499 246.753 144.499L247.019 171.376L243.206 174.303L248.792 189.383C248.792 189.383 260.318 193.818 261.205 194.084C262.092 194.35 265.727 201.358 266.347 202.689C254.112 210.229 234.251 222.381 230.97 224.155C226.094 226.816 209.691 241.896 209.691 241.896L195.15 243.936Z" fill="#F0F1F5" stroke="white" stroke-miterlimit="10" stroke-linejoin="round"/>
<path d="M262.535 100.768L262.978 110.17L251.186 117.888L251.452 127.024C251.452 127.024 247.107 131.104 244.536 133.499L240.191 112.211C240.191 112.211 233.63 109.106 230.882 107.332C228.222 105.558 225.562 94.0262 225.562 91.8086C225.562 89.591 231.325 86.0428 233.098 83.3817C234.96 80.7206 232.655 73.713 232.655 73.713L233.098 63.0685L237.531 56.5931C242.408 56.1496 246.043 55.9722 247.728 55.9722C249.412 55.9722 251.097 56.1496 252.427 56.7705C255.796 58.1898 258.19 62.0927 257.836 72.3824C257.392 86.9299 253.402 96.2438 261.382 100.324C261.825 100.413 262.18 100.679 262.535 100.768Z" fill="#F0F1F5" stroke="white" stroke-miterlimit="10" stroke-linejoin="round"/>
<path d="M259.432 401.74L258.811 411.409L244.979 411.232C245.689 408.571 246.487 404.313 246.398 399.789L257.658 401.74H259.432Z" fill="#F0F1F5" stroke="white" stroke-miterlimit="10" stroke-linejoin="round"/>
<path d="M159.507 281.635L152.237 282.256L138.937 291.038L132.819 290.151L127.943 296.804L120.849 303.456L114.2 310.553L107.638 313.569L109.855 318.891L108.082 325.987L107.993 326.874L101.875 328.648L98.3287 323.326L91.2356 328.648L84.5858 327.761L84.1424 322.439L78.3793 320.665L81.0392 314.101L73.5027 307.892L70.8428 311.883L52.6666 310.641L52.844 307.182L53.1986 300.884L47.4354 298.223L48.6767 290.683L45.3075 285.982L50.45 286.248V283.143L50.0067 278.797H54.4399L57.9865 283.143L61.5331 278.264C61.5331 278.264 107.55 278.797 108.791 277.377C110.121 276.047 109.678 270.725 109.678 270.725L107.018 268.507L98.1514 186.101L113.402 185.835L115.441 187.077L165.004 224.687L175.644 234.001L186.284 238.436V245.533L195.239 243.936L195.593 270.281L189.83 279.151L159.507 281.635Z" fill="#F0F1F5" stroke="white" stroke-miterlimit="10" stroke-linejoin="round"/>
<path d="M165.448 321.02L165.891 319.778L170.767 316.673L177.861 314.012L178.392 307.803H183.18L190.451 312.859C190.451 313.569 190.54 314.278 190.628 314.899C191.515 318.447 192.756 325.81 190.983 328.471C189.21 331.132 187.436 336.72 185.663 336.72C183.89 336.72 181.496 338.494 181.496 338.494L181.318 365.372C178.481 365.549 175.467 365.904 172.186 366.614L172.541 335.656L168.551 329.447L164.118 325.1L165.448 321.02Z" fill="#F0F1F5" stroke="white" stroke-miterlimit="10" stroke-linejoin="round"/>
<path d="M178.304 307.892L177.861 314.101L170.767 316.762L165.891 319.867L165.448 321.02L157.734 320.754L157.911 317.649H145.143L131.844 321.996L131.489 334.68L123.864 330.866L114.111 333.527L111.096 325.987L107.904 326.963L107.993 325.987L109.766 318.891L107.55 313.569L114.111 310.553L120.761 303.456L127.854 296.804L132.73 290.151L138.937 291.038L152.237 282.256L159.507 281.635L160.128 292.901L168.551 296.804L168.994 302.569L178.304 307.892Z" fill="#F0F1F5" stroke="white" stroke-miterlimit="10" stroke-linejoin="round"/>
<path d="M168.551 329.535L172.541 335.745L172.186 366.702C170.59 366.969 168.905 367.323 167.221 367.856L162.788 359.606L162.256 336.188L159.596 335.301L160.039 326.342L157.379 324.124L157.556 320.665L165.27 320.931L164.029 325.012L168.551 329.535Z" fill="#F0F1F5" stroke="white" stroke-miterlimit="10" stroke-linejoin="round"/>
<path d="M157.734 320.754L157.556 324.213L160.216 326.431L159.773 335.39L162.433 336.277L162.965 359.695L167.398 367.944C160.748 369.63 153.478 372.291 145.764 376.105C145.764 376.105 140.09 375.129 132.287 374.508L132.021 367.323L127.145 359.783L131.578 354.018L136.454 346.478L133.794 335.833L131.666 334.769L132.021 322.084L145.321 317.649H158.177L157.734 320.754Z" fill="#1FC7CC" stroke="white" stroke-miterlimit="10" stroke-linejoin="round"/>
<path d="M149.133 108.751L146.03 110.969V112.743L121.293 113.985V122.412L125.726 124.186L125.283 129.951L119.076 129.419L106.663 141.394L92.4768 140.507L78.2905 148.845L78.4678 159.046H42.1155C51.4252 152.305 69.3354 142.104 69.9561 135.628C70.8427 127.202 69.0694 104.582 92.5654 94.4698C105.954 88.6153 100.102 72.7373 104.535 72.2938C108.968 71.8503 115.175 80.2771 129.272 79.8336C131.223 79.7449 133.351 79.4788 135.39 78.9466C139.114 81.6077 142.483 85.0672 142.483 85.0672L141.597 101.921L149.133 108.751Z" fill="#F0F1F5" stroke="white" stroke-miterlimit="10" stroke-linejoin="round"/>
<path d="M107.904 326.963L111.096 326.076L114.111 333.616L123.864 330.955L131.4 334.769L133.528 335.833L136.188 346.478L131.312 354.018L126.878 359.783L131.755 367.323L132.021 374.508C120.406 373.621 104.092 373.799 94.9593 379.564C93.186 380.806 90.9694 381.161 88.5755 381.161L89.7281 369.009L79.5317 361.469L83.0783 356.679L79.9751 352.598L80.8617 352.421L84.8516 351.268L83.965 345.502L87.5115 344.172V338.406L82.1917 335.39L84.4083 327.85L91.0581 328.737L98.1512 323.415L101.698 328.737L107.904 326.963Z" fill="#1FC7CC" stroke="white" stroke-miterlimit="10" stroke-linejoin="round"/>
<path d="M78.5565 164.99L113.49 185.924L98.24 186.19L107.106 268.596L109.766 270.813C109.766 270.813 110.21 276.136 108.88 277.466C107.638 278.797 61.6217 278.353 61.6217 278.353L58.0751 283.232L54.5285 278.885H50.0953L50.5386 283.232V286.337L45.3961 286.07L35.9977 273.031H31.1212L28.9046 266.91L9.39843 269.66C11.5264 263.451 12.413 255.201 9.30977 245.001C5.94052 233.824 4.2559 227.171 3.63525 222.47H39.3669V206.947L50.45 202.068L48.2334 177.674L78.7339 177.231L78.5565 164.99Z" fill="#F0F1F5" stroke="white" stroke-miterlimit="10" stroke-linejoin="round"/>
<path d="M89.8168 368.92L88.6642 381.072C78.1131 380.718 62.7742 369.807 51.6025 360.05L62.7742 349.494L63.0402 345.059H70.222L72.084 354.373L74.7439 356.147L78.2905 350.824L80.9504 352.421L80.0638 352.598L83.167 356.679L79.6204 361.469L89.8168 368.92Z" fill="#1FC7CC" stroke="white" stroke-miterlimit="10" stroke-linejoin="round"/>
<path d="M87.6002 338.406V344.172L84.0537 345.502L84.9403 351.268L80.9504 352.421L78.2905 350.824L74.7439 356.147L72.084 354.372L70.3107 345.059H63.1289L63.3062 342.397L59.3163 334.414L50.4499 327.761L38.9236 338.849L35.377 338.14C33.4264 333.084 29.7911 326.608 20.8361 320.044L24.7373 315.343L31.8304 314.899L33.1604 305.142L52.6665 307.093L52.4892 310.553L70.6654 311.795L73.3253 307.803L80.8618 314.012L78.2018 320.576L83.965 322.35L84.4083 327.673L82.1917 335.212L87.6002 338.406Z" fill="#F0F1F5" stroke="white" stroke-miterlimit="10" stroke-linejoin="round"/>
<path d="M78.5565 164.989L78.7338 177.319L48.2333 177.763L50.4499 202.156L39.3669 207.035V222.558H3.6352C2.92588 216.793 4.16718 214.131 6.64978 209.696C11.083 201.802 34.1357 169.513 36.7956 164.191C37.3276 162.949 39.3669 161.264 42.1155 159.312H78.4678L78.5565 164.989Z" fill="#F0F1F5" stroke="white" stroke-miterlimit="10" stroke-linejoin="round"/>
<path d="M63.1289 345.059L62.863 349.494L51.6913 360.05C43.9775 353.219 38.303 346.921 37.6823 345.059C37.1503 343.284 36.5297 340.978 35.4657 338.228L39.0123 338.938L50.45 327.85L59.3164 334.503L63.3063 342.486L63.1289 345.059Z" fill="#1FC7CC" stroke="white" stroke-miterlimit="10" stroke-linejoin="round"/>
<path d="M45.2188 285.893L48.588 290.594L47.3467 298.134L53.1099 300.795L52.7552 307.093L33.2491 305.142L7.44779 306.739C6.38382 305.053 5.49718 303.279 4.78787 301.505L14.6296 302.037L15.0729 297.957L21.2794 298.489L28.8159 301.505L34.1357 298.489L30.1458 297.602L25.2693 294.941H19.1515L8.51176 295.384L2.2166 294.231C0.886639 289.53 0.531982 285.982 0.531982 285.183C0.531982 283.942 6.29516 278.797 9.48707 269.572L28.9045 266.644L31.1211 272.765H35.9977L45.2188 285.893Z" fill="#F0F1F5" stroke="white" stroke-miterlimit="10" stroke-linejoin="round"/>
<path d="M34.0471 298.578L28.7272 301.594L21.1907 298.578L14.9842 298.045L14.5409 302.126L4.78786 301.594C3.54656 299.021 2.74858 296.537 2.12793 294.409L8.42309 295.562L19.0628 295.118H25.1806L30.0572 297.779L34.0471 298.578Z" fill="#F0F1F5" stroke="white" stroke-miterlimit="10" stroke-linejoin="round"/>
<path d="M33.2491 305.142L31.9192 314.899L24.826 315.343L20.9248 320.044C20.2155 319.512 19.4175 318.98 18.6195 318.447C13.743 315.165 10.1078 311.085 7.5365 306.738L33.2491 305.142Z" fill="#F0F1F5" stroke="white" stroke-miterlimit="10" stroke-linejoin="round"/>
</g>
<defs>
<clipPath id="clip0">
<rect width="1149" height="757" fill="white"/>
</clipPath>
</defs>
</svg>
